<svg width="48" height="36" viewBox="0 0 48 36" fill="none" xmlns="http://www.w3.org/2000/svg">
<g clip-path="url(#clip0_2930_4009)">
<g clip-path="url(#clip1_2930_4009)">
<g clip-path="url(#clip2_2930_4009)">
<path d="M13.418 12.0941V28.5789C13.418 28.9203 13.6946 29.198 14.0366 29.198H21.3621C21.7032 29.198 21.9807 28.9211 21.9807 28.5789V12.0941C21.9807 11.7526 21.704 11.4749 21.3621 11.4749H14.0366C13.6954 11.4749 13.418 11.7518 13.418 12.0941Z" fill="#020618"/>
<path d="M17.6995 9.41755C20.2952 9.41755 22.3997 7.31124 22.3997 4.71339C22.3997 2.11552 20.2952 0.0100098 17.6995 0.0100098C15.1038 0.0100098 13 2.1163 13 4.71417C13 7.31203 15.1045 9.41834 17.6995 9.41834V9.41755Z" fill="#020618"/>
<path d="M33.2821 22.9226V6.4378C33.2821 6.09635 33.0055 5.81866 32.6635 5.81866H25.3388C24.9976 5.81866 24.7202 6.09556 24.7202 6.4378V22.9226C24.7202 23.264 24.9968 23.5417 25.3388 23.5417H32.6635C33.0047 23.5417 33.2821 23.2648 33.2821 22.9226Z" fill="#020618"/>
<path d="M34.3266 30.7794C31.8747 31.4125 29.9442 33.3453 29.3116 35.7994C29.2533 36.0311 28.9269 36.0311 28.8686 35.7994C28.236 33.3446 26.3064 31.4125 23.8536 30.7794C23.622 30.7203 23.622 30.3944 23.8536 30.3353C26.3056 29.7021 28.236 27.7662 28.8686 25.3153C28.9277 25.0835 29.2533 25.0835 29.3116 25.3153C29.9442 27.7701 31.8778 29.7021 34.3297 30.3392C34.5613 30.3983 34.5613 30.7242 34.3297 30.7833L34.3266 30.7802V30.7794Z" fill="#020618"/>
</g>
</g>
</g>
<defs>
<clipPath id="clip0_2930_4009">
<rect width="22" height="36" fill="white" transform="translate(13)"/>
</clipPath>
<clipPath id="clip1_2930_4009">
<rect width="22" height="36" fill="white" transform="translate(13)"/>
</clipPath>
<clipPath id="clip2_2930_4009">
<rect width="21.527" height="36" fill="white" transform="translate(13)"/>
</clipPath>
</defs>
</svg>
